<?xml version="1.0" encoding="utf-8"?>
<!-- Generator: Adobe Illustrator 24.0.1, SVG Export Plug-In . SVG Version: 6.00 Build 0)  -->
<svg version="1.1" id="Layer_1" xmlns="http://www.w3.org/2000/svg" xmlns:xlink="http://www.w3.org/1999/xlink" x="0px" y="0px"
	 viewBox="0 0 500 500" style="enable-background:new 0 0 500 500;" xml:space="preserve">
<style type="text/css">
	.st0{fill:#FFFFFF;}
</style>
<g>
	<g>
		<path class="st0" d="M500,500c-166.7,0-333.3,0-500,0C0,333.3,0,166.7,0,0c166.7,0,333.3,0,500,0C500,166.7,500,333.3,500,500z
			 M251.7,43.6c-40.3,0-80.5-0.5-120.8,0.1C74,44.7,30.6,88.2,30.3,144.5c-0.4,70.3-0.4,140.7,0,211c0.3,55.2,42.5,99.6,97.9,100.4
			c81,1.2,162,1.1,242.9,0.1c56-0.8,98.3-45.2,98.6-101.2c0.3-68.9,0.3-137.9,0-206.8C469.5,87,426.2,43.9,365.5,43.6
			C327.6,43.5,289.7,43.6,251.7,43.6z"/>
		<path d="M251.7,43.6c37.9,0,75.9-0.1,113.8,0C426.2,43.9,469.5,87,469.7,148c0.3,68.9,0.3,137.9,0,206.8
			c-0.2,56-42.5,100.5-98.6,101.2c-81,1.1-162,1.2-242.9-0.1c-55.4-0.8-97.6-45.2-97.9-100.4c-0.4-70.3-0.4-140.7,0-211
			C30.6,88.2,74,44.7,130.9,43.8C171.2,43.1,211.4,43.6,251.7,43.6z M286.3,102.8c-9.3,0.6-14.9,7-17.9,17.7
			c-14.3,51.1-29.1,102.1-43.7,153.2c-9.3,32.4-19.1,64.7-27.3,97.3c-1.6,6.4,0.8,16,5,21c3.2,3.8,13.6,5.1,18.4,2.7
			c5.6-2.8,10.4-10.3,12.3-16.7c14.5-48.7,28.2-97.6,42.1-146.4c9.6-33.7,19.4-67.4,28.9-101.2C308.5,115.1,301.5,103.4,286.3,102.8
			z M389.8,249.7c-16.6,16.8-32.3,32.5-47.8,48.4c-10.3,10.5-11.1,21-3,29.2c8.3,8.3,18.6,7.5,29.2-3c19.4-19.1,38.7-38.4,57.9-57.9
			c11.8-12,11.7-21.1-0.3-33.3c-18.2-18.4-36.6-36.7-54.9-54.9c-13-12.9-23.3-14.6-32.2-5.3c-8.5,8.9-6.8,18.8,5.5,31.2
			C359.2,219.2,374.2,234.2,389.8,249.7z M112,250.1c16.3-16.5,31.9-32.2,47.4-48.1c9.9-10.2,11-21.5,3.2-29.4
			c-8.1-8.2-18.9-7.4-29.3,2.9c-19.5,19.1-38.8,38.4-57.9,57.9c-12,12.2-11.9,21.1,0.2,33.4c18.4,18.8,37.2,37.4,55.9,55.9
			c12,11.9,22.8,13.3,31.3,4.4c8.1-8.4,6.2-19.5-5.5-31.4C142.3,280.7,127.3,265.6,112,250.1z"/>
		<path class="st0" d="M286.3,102.8c15.2,0.6,22.1,12.3,17.8,27.7c-9.5,33.8-19.2,67.5-28.9,101.2c-13.9,48.8-27.6,97.7-42.1,146.4
			c-1.9,6.4-6.7,13.9-12.3,16.7c-4.8,2.4-15.2,1-18.4-2.7c-4.2-5-6.6-14.6-5-21c8.2-32.7,18-64.9,27.3-97.3
			c14.6-51,29.4-102,43.7-153.2C271.5,109.8,277.1,103.4,286.3,102.8z"/>
		<path class="st0" d="M389.8,249.7c-15.6-15.6-30.6-30.5-45.5-45.6c-12.3-12.4-14-22.3-5.5-31.2c8.9-9.3,19.2-7.6,32.2,5.3
			c18.4,18.3,36.7,36.5,54.9,54.9c12,12.2,12.1,21.3,0.3,33.3c-19.1,19.4-38.4,38.7-57.9,57.9c-10.6,10.4-20.9,11.3-29.2,3
			c-8.2-8.2-7.3-18.7,3-29.2C357.5,282.2,373.1,266.5,389.8,249.7z"/>
		<path class="st0" d="M112,250.1c15.4,15.5,30.3,30.6,45.2,45.7c11.7,11.9,13.7,22.9,5.5,31.4c-8.5,8.9-19.3,7.5-31.3-4.4
			c-18.7-18.5-37.4-37.1-55.9-55.9c-12.1-12.3-12.1-21.2-0.2-33.4c19.1-19.5,38.4-38.8,57.9-57.9c10.5-10.3,21.3-11,29.3-2.9
			c7.8,7.8,6.7,19.2-3.2,29.4C143.9,217.9,128.2,233.6,112,250.1z"/>
	</g>
</g>
</svg>
